{
  "source": "C:\\Users\\Peter\\Desktop\\stuff\\MIUN\\quantitative_research\\video_compression\\videos\\UVG\\HoneyBee_1920x1080_120fps_420_8bit_YUV.y4m",
  "output": "C:\\Users\\Peter\\Desktop\\stuff\\MIUN\\quantitative_research\\video_compression\\compressed_videos\\UVG\\h264\\8\\HoneyBee_1920x1080_120fps_420_8bit_YUV_h264.mp4",
  "codec": "h264",
  "ok": "[yuv4mpegpipe @ 000002c8a8036600] Stream #0: not enough frames to estimate rate; consider increasing probesize\nInput #0, yuv4mpegpipe, from 'C:\\Users\\Peter\\Desktop\\stuff\\MIUN\\quantitative_research\\video_compression\\videos\\UVG\\HoneyBee_1920x1080_120fps_420_8bit_YUV.y4m':\n  Duration: 00:00:05.00, start: 0.000000, bitrate: 2985989 kb/s\n  Stream #0:0: Video: rawvideo (I420 / 0x30323449), yuv420p(progressive), 1920x1080, 120 fps, 120 tbr, 120 tbn\n[out#0/mp4 @ 000002c8a803a240] Codec AVOption b:a (set bitrate (in bits/s)) has not been used for any stream. The most likely reason is either wrong type (e.g. a video option with no video streams) or that it is a private option of some decoder which was not actually used for any stream.\nStream mapping:\n  Stream #0:0 -> #0:0 (rawvideo (native) -> h264 (libx264))\nPress [q] to stop, [?] for help\n[libx264 @ 000002c8a803ca80] using cpu capabilities: MMX2 SSE2Fast SSSE3 SSE4.2 AVX FMA3 BMI2 AVX2\n[libx264 @ 000002c8a803ca80] profile High, level 5.1, 4:2:0, 8-bit\n[libx264 @ 000002c8a803ca80] 264 - core 165 r3222 b35605a - H.264/MPEG-4 AVC codec - Copyleft 2003-2025 - http://www.videolan.org/x264.html - options: cabac=1 ref=5 deblock=1:0:0 analyse=0x3:0x113 me=hex subme=8 psy=1 psy_rd=1.00:0.00 mixed_ref=1 me_range=16 chroma_me=1 trellis=2 8x8dct=1 cqm=0 deadzone=21,11 fast_pskip=1 chroma_qp_offset=-2 threads=18 lookahead_threads=3 sliced_threads=0 nr=0 decimate=1 interlaced=0 bluray_compat=0 constrained_intra=0 bframes=3 b_pyramid=2 b_adapt=1 b_bias=0 direct=3 weightb=1 open_gop=0 weightp=2 keyint=250 keyint_min=25 scenecut=40 intra_refresh=0 rc_lookahead=50 rc=cbr mbtree=1 bitrate=8000 ratetol=1.0 qcomp=0.60 qpmin=0 qpmax=69 qpstep=4 vbv_maxrate=8000 vbv_bufsize=8000 nal_hrd=none filler=0 ip_ratio=1.40 aq=1:1.00\nOutput #0, mp4, to 'C:\\Users\\Peter\\Desktop\\stuff\\MIUN\\quantitative_research\\video_compression\\compressed_videos\\UVG\\h264\\8\\HoneyBee_1920x1080_120fps_420_8bit_YUV_h264.mp4':\n  Metadata:\n    encoder         : Lavf62.3.100\n  Stream #0:0: Video: h264 (avc1 / 0x31637661), yuv420p(tv, progressive), 1920x1080, q=2-31, 8000 kb/s, 120 fps, 15360 tbn\n    Metadata:\n      encoder         : Lavc62.11.100 libx264\n    Side data:\n      cpb: bitrate max/min/avg: 8000000/0/8000000 buffer size: 8000000 vbv_delay: N/A\nframe=    0 fps=0.0 q=0.0 size=       0KiB time=N/A bitrate=N/A speed=N/A elapsed=0:00:00.51    \nframe=    0 fps=0.0 q=0.0 size=       0KiB time=N/A bitrate=N/A speed=N/A elapsed=0:00:01.05    \nframe=   28 fps= 18 q=31.0 size=       0KiB time=00:00:00.21 bitrate=   1.8kbits/s speed=0.136x elapsed=0:00:01.59    \nframe=   53 fps= 25 q=29.0 size=       0KiB time=00:00:00.42 bitrate=   0.9kbits/s speed=0.199x elapsed=0:00:02.13    \nframe=   77 fps= 29 q=28.0 size=     256KiB time=00:00:00.62 bitrate=3356.1kbits/s speed=0.233x elapsed=0:00:02.68    \nframe=   97 fps= 30 q=28.0 size=     256KiB time=00:00:00.79 bitrate=2649.5kbits/s speed=0.244x elapsed=0:00:03.23    \nframe=  117 fps= 31 q=28.0 size=     512KiB time=00:00:00.95 bitrate=4377.1kbits/s speed=0.253x elapsed=0:00:03.79    \nframe=  140 fps= 32 q=28.0 size=     512KiB time=00:00:01.14 bitrate=3674.2kbits/s speed=0.264x elapsed=0:00:04.32    \nframe=  165 fps= 34 q=28.0 size=     768KiB time=00:00:01.35 bitrate=4660.6kbits/s speed=0.277x elapsed=0:00:04.87    \nframe=  188 fps= 35 q=29.0 size=     768KiB time=00:00:01.52 bitrate=4125.8kbits/s speed=0.281x elapsed=0:00:05.42    \nframe=  216 fps= 36 q=29.0 size=    1024KiB time=00:00:01.78 bitrate=4704.1kbits/s speed=0.299x elapsed=0:00:05.96    \nframe=  233 fps= 36 q=29.0 size=    1024KiB time=00:00:01.92 bitrate=4357.9kbits/s speed=0.296x elapsed=0:00:06.50    \nframe=  256 fps= 36 q=30.0 size=    1280KiB time=00:00:02.07 bitrate=5053.6kbits/s speed=0.295x elapsed=0:00:07.02    \nframe=  281 fps= 37 q=28.0 size=    1280KiB time=00:00:02.31 bitrate=4526.4kbits/s speed=0.305x elapsed=0:00:07.58    \nframe=  303 fps= 37 q=28.0 size=    1280KiB time=00:00:02.50 bitrate=4194.5kbits/s speed=0.308x elapsed=0:00:08.10    \nframe=  321 fps= 37 q=28.0 size=    1536KiB time=00:00:02.64 bitrate=4763.4kbits/s speed=0.304x elapsed=0:00:08.67    \nframe=  343 fps= 37 q=28.0 size=    1536KiB time=00:00:02.83 bitrate=4441.2kbits/s speed=0.307x elapsed=0:00:09.22    \nframe=  369 fps= 38 q=28.0 size=    1792KiB time=00:00:03.04 bitrate=4826.4kbits/s speed=0.311x elapsed=0:00:09.77    \nframe=  398 fps= 39 q=28.0 size=    1792KiB time=00:00:03.30 bitrate=4448.6kbits/s speed=0.32x elapsed=0:00:10.30    \nframe=  426 fps= 39 q=28.0 size=    2048KiB time=00:00:03.50 bitrate=4782.2kbits/s speed=0.323x elapsed=0:00:10.85    \nframe=  446 fps= 39 q=30.0 size=    2048KiB time=00:00:03.70 bitrate=4534.5kbits/s speed=0.325x elapsed=0:00:11.37    \nframe=  480 fps= 40 q=29.0 size=    2048KiB time=00:00:03.95 bitrate=4247.5kbits/s speed=0.331x elapsed=0:00:11.92    \nframe=  495 fps= 40 q=30.0 size=    2304KiB time=00:00:04.08 bitrate=4622.4kbits/s speed=0.328x elapsed=0:00:12.46    \nframe=  520 fps= 40 q=29.0 size=    2560KiB time=00:00:04.31 bitrate=4858.4kbits/s speed=0.332x elapsed=0:00:12.99    \nframe=  545 fps= 40 q=27.0 size=    2560KiB time=00:00:04.52 bitrate=4634.7kbits/s speed=0.334x elapsed=0:00:13.53    \nframe=  557 fps= 40 q=26.0 size=    2560KiB time=00:00:04.62 bitrate=4534.5kbits/s speed=0.329x elapsed=0:00:14.06    \nframe=  574 fps= 39 q=25.0 size=    2816KiB time=00:00:04.75 bitrate=4848.1kbits/s speed=0.326x elapsed=0:00:14.58    \nframe=  589 fps= 39 q=-1.0 size=    3072KiB time=00:00:04.89 bitrate=5144.7kbits/s speed=0.323x elapsed=0:00:15.16    \n[mp4 @ 000002c8a803a340] Starting second pass: moving the moov atom to the beginning of the file\n[out#0/mp4 @ 000002c8a803a240] video:3206KiB audio:0KiB subtitle:0KiB other streams:0KiB global headers:0KiB muxing overhead: 0.246451%\nframe=  600 fps= 39 q=-1.0 Lsize=    3214KiB time=00:00:04.98 bitrate=5283.4kbits/s speed=0.323x elapsed=0:00:15.42    \n[libx264 @ 000002c8a803ca80] frame I:3     Avg QP:25.61  size:135159\n[libx264 @ 000002c8a803ca80] frame P:151   Avg QP:23.59  size: 14417\n[libx264 @ 000002c8a803ca80] frame B:446   Avg QP:28.78  size:  1569\n[libx264 @ 000002c8a803ca80] consecutive B-frames:  0.8%  0.0%  0.5% 98.7%\n[libx264 @ 000002c8a803ca80] mb I  I16..4: 11.8% 78.1% 10.2%\n[libx264 @ 000002c8a803ca80] mb P  I16..4:  0.0%  0.1%  0.0%  P16..4: 38.4%  6.4%  8.7%  0.0%  0.0%    skip:46.4%\n[libx264 @ 000002c8a803ca80] mb B  I16..4:  0.0%  0.0%  0.0%  B16..8: 26.4%  0.1%  0.0%  direct: 0.1%  skip:73.4%  L0:25.9% L1:74.0% BI: 0.1%\n[libx264 @ 000002c8a803ca80] 8x8 transform intra:78.3% inter:67.8%\n[libx264 @ 000002c8a803ca80] direct mvs  spatial:97.8% temporal:2.2%\n[libx264 @ 000002c8a803ca80] coded y,uvDC,uvAC intra: 77.2% 90.5% 68.1% inter: 2.5% 7.7% 0.8%\n[libx264 @ 000002c8a803ca80] i16 v,h,dc,p: 25%  8%  3% 64%\n[libx264 @ 000002c8a803ca80] i8 v,h,dc,ddl,ddr,vr,hd,vl,hu:  7%  5%  1% 12% 18% 18% 15% 12% 12%\n[libx264 @ 000002c8a803ca80] i4 v,h,dc,ddl,ddr,vr,hd,vl,hu:  6%  3%  1% 13% 19% 18% 15% 13% 13%\n[libx264 @ 000002c8a803ca80] i8c dc,h,v,p: 35% 14% 22% 30%\n[libx264 @ 000002c8a803ca80] Weighted P-Frames: Y:0.0% UV:0.0%\n[libx264 @ 000002c8a803ca80] ref P L0: 51.7% 13.8% 19.0%  6.7%  8.9%\n[libx264 @ 000002c8a803ca80] ref B L0: 73.5% 20.5%  5.0%  1.0%\n[libx264 @ 000002c8a803ca80] ref B L1: 93.7%  6.3%\n[libx264 @ 000002c8a803ca80] kb/s:5251.59\n",
  "seconds": 15.633687019348145,
  "probe_out": {}
}